<svg width="60" height="60" viewBox="0 0 60 60" fill="none" xmlns="http://www.w3.org/2000/svg">
<path fill-rule="evenodd" clip-rule="evenodd" d="M10.5272 14.8384C8.59903 17.2924 7.75 20.611 7.75 24C7.75 29.6924 11.1956 34.8824 15.8281 39.2678C20.3251 43.525 25.8331 46.9207 30.0179 49.1599C34.6339 46.9256 40.1463 43.2931 44.5322 38.9072C49.0446 34.3948 52.25 29.2019 52.25 24C52.25 20.6067 51.424 17.2889 49.5089 14.8366C47.6169 12.4139 44.5961 10.75 40 10.75C35.6855 10.75 33.3949 12.1791 32.1779 13.5068C31.5595 14.1814 31.1965 14.8533 30.9892 15.351C30.8856 15.5996 30.8214 15.8035 30.7839 15.9403C30.7685 15.9967 30.7576 16.0416 30.7505 16.0732C30.7633 17.1042 31.0502 17.4992 31.5384 18.1712C31.7125 18.4108 31.9122 18.6856 32.1341 19.037C32.9065 20.26 33.6095 22.0473 33.7314 25.8065C34.3583 25.5534 35.0985 25.3639 35.8857 25.4411C37.2829 25.5781 38.5851 26.513 39.6518 28.6268L39.6544 28.6308C39.6715 28.6577 39.6952 28.6954 39.7238 28.7428C39.781 28.8374 39.8589 28.9715 39.9449 29.1351C40.115 29.4583 40.327 29.9145 40.4711 30.419C40.6125 30.9138 40.708 31.5212 40.5759 32.1158C40.4349 32.7503 40.0445 33.3163 39.3354 33.6708C38.6587 34.0092 38.0045 34.0293 37.4242 33.8116C37.3453 33.7821 37.2692 33.7486 37.1959 33.712C37.2447 35.0355 37.0552 36.4376 36.4316 37.7059C35.2658 40.0772 32.7057 41.75 28.0796 41.75C22.2951 41.75 19.0276 39.3782 17.2483 36.5215C15.5052 33.7229 15.25 30.5576 15.25 29C15.25 28.3361 15.1401 27.997 15.0257 27.7826C14.9246 27.5929 14.8119 27.4699 14.6299 27.2711C14.5736 27.2097 14.5107 27.1409 14.4394 27.0608C14.1499 26.7351 13.8346 26.3231 13.6041 25.6605C13.38 25.016 13.25 24.1758 13.25 23C13.25 20.6932 14.4281 19.2185 15.8641 18.3569C17.261 17.5188 18.9044 17.25 20 17.25C21.9314 17.25 23.6891 17.9474 24.7995 19.5152C25.7099 20.8005 26.114 22.5717 25.9275 24.7986C26.2882 24.6918 26.6593 24.6489 27.025 24.7106C27.5774 24.8039 27.9976 25.1041 28.3017 25.5488C29.3126 24.5216 30.4241 24.0779 31.4642 24.2322C31.7089 24.2685 31.9382 24.3364 32.1499 24.4314C31.9273 21.8561 31.3712 20.6381 30.8659 19.838C30.7317 19.6255 30.5828 19.423 30.4314 19.2169C29.8686 18.4512 29.2697 17.6362 29.2505 16.0773C29.2433 16.0455 29.2322 15.9992 29.2161 15.9403C29.1786 15.8035 29.1144 15.5996 29.0108 15.351C28.8035 14.8533 28.4405 14.1814 27.8221 13.5068C26.6051 12.1791 24.3145 10.75 20 10.75C15.4561 10.75 12.4333 12.4125 10.5272 14.8384ZM33.5397 27.5596C33.05 28.3888 32.6855 29.0993 32.3637 29.7267L32.3152 29.8211L33.7069 33.7495C33.8453 34.14 33.6409 34.5686 33.2505 34.7069C32.86 34.8453 32.4314 34.6409 32.2931 34.2505L31.3343 31.5442C30.8809 32.1854 30.3291 32.7027 29.4838 33.0594C28.1825 33.6086 26.2402 33.75 23 33.75C22.5858 33.75 22.25 33.4142 22.25 33C22.25 32.5858 22.5858 32.25 23 32.25C26.2995 32.25 27.9269 32.0884 28.9006 31.6775C29.7679 31.3115 30.1544 30.7338 30.834 29.4212C30.8951 29.303 30.9587 29.1791 31.0247 29.0504C31.3435 28.4286 31.7249 27.6848 32.2323 26.8236C32.1385 26.1734 31.7196 25.7865 31.2441 25.716C30.7039 25.6359 29.7389 25.9171 28.6967 27.4262C28.4453 27.7903 28.1937 28.2213 27.9483 28.7272C27.6574 29.3272 27.048 29.75 26.3406 29.75H24.0704C23.3479 29.75 22.7662 29.3307 22.5061 28.7613C22.2418 28.1828 22.3159 27.456 22.8492 26.9251C23.3059 26.4705 23.8047 26.0258 24.3127 25.6554C24.7119 23.138 24.3244 21.4396 23.5755 20.3822C22.8109 19.3026 21.5686 18.75 20 18.75C19.0956 18.75 17.739 18.9812 16.6359 19.6431C15.5719 20.2815 14.75 21.3068 14.75 23C14.75 24.0742 14.87 24.734 15.0209 25.1677C15.1654 25.5832 15.3501 25.8274 15.5606 26.0642C15.5955 26.1035 15.6351 26.1463 15.6779 26.1926C15.8782 26.409 16.1495 26.7021 16.3493 27.0767C16.6099 27.5655 16.75 28.1639 16.75 29C16.75 30.4424 16.9948 33.2771 18.5216 35.7285C20.0122 38.1218 22.7845 40.25 28.0796 40.25C32.3172 40.25 34.2438 38.7561 35.0855 37.0441C35.9703 35.2445 35.7832 32.9622 35.2791 31.207C35.1665 30.8148 35.3881 30.4045 35.7778 30.2837C36.167 30.163 36.5813 30.3751 36.7109 30.7611L36.7113 30.7622L36.7175 30.7797C36.7232 30.7955 36.7326 30.821 36.7456 30.8543C36.7717 30.9212 36.8119 31.0186 36.8661 31.1338C36.9766 31.3685 37.1351 31.6558 37.3357 31.9065C37.5403 32.1623 37.7504 32.3319 37.9508 32.4071C38.1205 32.4707 38.3413 32.4908 38.6646 32.3292C38.9555 32.1837 39.0651 31.9997 39.1116 31.7904C39.167 31.5413 39.1375 31.2112 39.0289 30.831C38.6076 29.3567 37.1213 27.0694 35.7393 26.9339C34.9955 26.861 34.2455 27.1796 33.5397 27.5596ZM27.273 26.859C27.0983 26.269 26.8662 26.205 26.7753 26.1897C26.5316 26.1486 26.0776 26.2699 25.4177 26.7124C24.9242 27.0434 24.4039 27.494 23.9075 27.9881C23.8681 28.0273 23.8609 28.0551 23.8588 28.0682C23.856 28.0854 23.8575 28.1096 23.8705 28.138C23.8955 28.1928 23.9562 28.25 24.0704 28.25H26.3406C26.4332 28.25 26.5405 28.1926 26.5986 28.0727C26.8151 27.6263 27.0406 27.2224 27.273 26.859ZM30 13.9664C30.2604 13.5055 30.6086 12.9989 31.0721 12.4932C32.6051 10.8209 35.3145 9.25 40 9.25C45.0039 9.25 48.4831 11.0861 50.6911 13.9134C52.876 16.7111 53.75 20.3933 53.75 24C53.75 29.7981 50.2054 35.3552 45.5928 39.9678C40.9616 44.5991 35.1379 48.3962 30.3211 50.6778C30.1073 50.7791 29.8582 50.7735 29.6491 50.6628C25.3713 48.3982 19.5546 44.8611 14.7969 40.3572C10.0544 35.8676 6.25 30.3076 6.25 24C6.25 20.389 7.15097 16.7076 9.34776 13.9116C11.5667 11.0875 15.0439 9.25 20 9.25C24.6855 9.25 27.3949 10.8209 28.9279 12.4932C29.3914 12.9989 29.7396 13.5055 30 13.9664ZM43.1818 14.2724C42.78 14.172 42.3728 14.4163 42.2723 14.8182C42.1719 15.22 42.4162 15.6272 42.818 15.7277C44.5514 16.161 48.2499 18.4089 48.2499 24.0001C48.2499 24.4143 48.5857 24.7501 48.9999 24.7501C49.4141 24.7501 49.7499 24.4143 49.7499 24.0001C49.7499 17.5912 45.4485 14.8391 43.1818 14.2724Z" fill="#13AAE0"/>
</svg>
