<svg width="60" height="60" viewBox="0 0 60 60" fill="none" xmlns="http://www.w3.org/2000/svg">
<path fill-rule="evenodd" clip-rule="evenodd" d="M25.2973 7.98783C25.5631 6.43323 26.9172 5.25 28.5476 5.25H31.4524C33.0828 5.25 34.4369 6.43323 34.7027 7.98783C39.7815 9.76403 41.474 14.3038 41.7179 17.25H42C43.5188 17.25 44.75 18.4812 44.75 20C44.75 20.9381 44.2803 21.7665 43.5632 22.2628C44.2936 22.947 44.75 23.9202 44.75 25C44.75 27.0711 43.0711 28.75 41 28.75H40.3949C39.8027 30.9944 38.5029 32.9512 36.75 34.367V37.25H40C41.5275 37.25 42.9824 37.569 44.3003 38.1448C48.0954 39.803 50.75 43.5906 50.75 48V54C50.75 54.4142 50.4142 54.75 50 54.75H10C9.58579 54.75 9.25 54.4142 9.25 54V48C9.25 43.5906 11.9046 39.803 15.6997 38.1448C17.0176 37.569 18.4725 37.25 20 37.25H23.25V34.367C21.4974 32.9514 20.1976 30.9952 19.6051 28.75H19C16.9289 28.75 15.25 27.0711 15.25 25C15.25 23.9202 15.7064 22.947 16.4368 22.2628C15.7197 21.7665 15.25 20.9381 15.25 20C15.25 18.4812 16.4812 17.25 18 17.25H18.2821C18.526 14.3038 20.2185 9.76403 25.2973 7.98783ZM25.25 9.61251C21.3923 11.2305 20.0183 14.8057 19.7867 17.25H40.2133C39.9817 14.8057 38.6077 11.2305 34.75 9.61251V14C34.75 14.4142 34.4142 14.75 34 14.75C33.5858 14.75 33.25 14.4142 33.25 14V8.54759C33.25 7.55481 32.4452 6.75 31.4524 6.75H28.5476C27.5548 6.75 26.75 7.55481 26.75 8.54759V14C26.75 14.4142 26.4142 14.75 26 14.75C25.5858 14.75 25.25 14.4142 25.25 14V9.61251ZM19 22.75C17.7574 22.75 16.75 23.7574 16.75 25C16.75 26.2426 17.7574 27.25 19 27.25H19.322C19.2744 26.8397 19.25 26.4226 19.25 26V22.75H19ZM20.75 22.75V26C20.75 26.6345 20.8138 27.2534 20.935 27.8508C21.3929 30.1063 22.6726 32.0657 24.4504 33.4011C25.9963 34.5622 27.9168 35.25 30 35.25C32.0832 35.25 34.0037 34.5622 35.5496 33.4011C37.798 31.7122 39.25 29.0258 39.25 26V22.75H20.75ZM40.75 22.75V26C40.75 26.4228 40.7256 26.8399 40.6781 27.25H41C42.2426 27.25 43.25 26.2426 43.25 25C43.25 23.7574 42.2426 22.75 41 22.75H40.75ZM24.75 35.3829V37.6893L30 42.9393L35.25 37.6893V35.3829C33.6971 36.2535 31.9059 36.75 30 36.75C28.0941 36.75 26.3029 36.2535 24.75 35.3829ZM36.3107 38.75L30.75 44.3107V53.25H39.25V38.75H36.3107ZM40.75 38.7799V53.25H43.25V39.3368C42.4626 39.0413 41.6238 38.85 40.75 38.7799ZM44.75 40.0609V53.25H49.25V48C49.25 44.629 47.4467 41.6779 44.75 40.0609ZM29.25 53.25V44.3107L23.6893 38.75H20.75V53.25H29.25ZM19.25 53.25V38.7799C18.3762 38.85 17.5374 39.0413 16.75 39.3368V53.25H19.25ZM15.25 53.25V40.0609C12.5533 41.6779 10.75 44.629 10.75 48V53.25H15.25ZM42 21.25C42.6904 21.25 43.25 20.6904 43.25 20C43.25 19.3096 42.6904 18.75 42 18.75H18C17.3096 18.75 16.75 19.3096 16.75 20C16.75 20.6904 17.3096 21.25 18 21.25H42Z" fill="#13AAE0"/>
</svg>
