<svg width="60" height="60" viewBox="0 0 60 60" fill="none" xmlns="http://www.w3.org/2000/svg">
<path fill-rule="evenodd" clip-rule="evenodd" d="M41.9253 9.89263C37.1547 6.61559 30.5782 7.09761 26.3379 11.3379C22.0976 15.5782 21.6156 22.1547 24.8926 26.9253L41.9253 9.89263ZM43.1157 10.8235L25.8235 28.1157C25.9883 28.3017 26.1598 28.4839 26.3379 28.662C26.5161 28.8402 26.6982 29.0116 26.8842 29.1764L44.1764 11.8842C44.0116 11.6982 43.8402 11.5161 43.662 11.3379C43.4839 11.1598 43.3017 10.9883 43.1157 10.8235ZM45.1073 13.0746L28.0746 30.1073C32.8452 33.3844 39.4217 32.9023 43.662 28.662C47.9023 24.4217 48.3844 17.8452 45.1073 13.0746ZM25.2773 10.2773C30.2679 5.28659 38.1394 4.93449 43.5375 9.22006C43.9479 9.54584 44.3437 9.89826 44.7227 10.2773C45.1017 10.6562 45.4541 11.0521 45.7799 11.4624C50.0654 16.8606 49.7133 24.732 44.7227 29.7227C39.732 34.7134 31.8606 35.0654 26.4624 30.7799C26.0521 30.4541 25.6562 30.1017 25.2773 29.7227C24.8983 29.3437 24.5458 28.9479 24.2201 28.5375C19.9345 23.1394 20.2866 15.2679 25.2773 10.2773ZM7.9846 25.9846C10.6206 23.3486 14.8945 23.3486 17.5305 25.9846L26.0158 34.4699C28.6519 37.1059 28.6519 41.3798 26.0158 44.0158C23.3798 46.6519 19.1059 46.6519 16.4699 44.0158L7.9846 35.5305C5.34856 32.8945 5.34856 28.6206 7.9846 25.9846ZM16.4699 27.0453C14.4196 24.995 11.0955 24.995 9.04526 27.0453C6.99501 29.0955 6.99501 32.4196 9.04526 34.4699L12.7576 38.1822L20.1822 30.7576L16.4699 27.0453ZM21.2428 31.8182L13.8182 39.2429L17.5305 42.9552C19.5808 45.0054 22.9049 45.0054 24.9552 42.9552C27.0054 40.9049 27.0054 37.5808 24.9552 35.5305L21.2428 31.8182ZM43.5305 35.0453C45.5808 32.995 48.9049 32.995 50.9552 35.0453C53.0054 37.0955 53.0054 40.4196 50.9552 42.4699L47.2429 46.1822L39.8182 38.7576L43.5305 35.0453ZM35.0453 43.5305L38.7576 39.8182L46.1822 47.2429L42.4699 50.9552C40.4196 53.0054 37.0955 53.0054 35.0453 50.9552C32.995 48.9049 32.995 45.5808 35.0453 43.5305ZM52.0158 33.9846C49.3798 31.3486 45.1059 31.3486 42.4699 33.9846L33.9846 42.4699C31.3486 45.1059 31.3486 49.3798 33.9846 52.0158C36.6206 54.6519 40.8945 54.6519 43.5305 52.0158L52.0158 43.5305C54.6519 40.8945 54.6519 36.6206 52.0158 33.9846Z" fill="#13AAE0"/>
</svg>
