<svg width="60" height="60" viewBox="0 0 60 60" fill="none" xmlns="http://www.w3.org/2000/svg">
<path fill-rule="evenodd" clip-rule="evenodd" d="M42 8.75C40.2051 8.75 38.75 10.2051 38.75 12C38.75 13.7949 40.2051 15.25 42 15.25C43.7949 15.25 45.25 13.7949 45.25 12C45.25 10.2051 43.7949 8.75 42 8.75ZM37.25 12C37.25 9.37665 39.3766 7.25 42 7.25C44.6234 7.25 46.75 9.37665 46.75 12C46.75 14.6234 44.6234 16.75 42 16.75C39.3766 16.75 37.25 14.6234 37.25 12ZM26.6568 17.75C25.7948 17.75 24.9682 18.0924 24.3587 18.7019L19.2803 23.7803C18.8828 24.1778 18.8828 24.8222 19.2803 25.2197C19.6777 25.6171 20.3222 25.6171 20.7196 25.2197L25.4696 20.4697C25.6244 20.3149 25.8392 20.2354 26.0575 20.2522L32.5575 20.7522C32.8246 20.7728 33.0605 20.9342 33.1763 21.1758C33.2921 21.4174 33.2702 21.7024 33.1189 21.9235L28.4935 28.6837C27.8014 29.6953 27.7504 30.9816 28.2944 32.0234C28.4438 32.3097 28.6384 32.5778 28.8777 32.8171L35.5303 39.4697C35.6709 39.6103 35.7499 39.8011 35.7499 40V49.5C35.7499 50.4665 36.5334 51.25 37.4999 51.25C38.4664 51.25 39.2499 50.4665 39.2499 49.5V38.1569C39.2499 37.2949 38.9075 36.4683 38.298 35.8588L34.4696 32.0303C34.2168 31.7775 34.1776 31.3814 34.3759 31.084L39.7118 23.0801C39.7808 22.9766 39.8399 22.87 39.8894 22.7612C40.3383 21.7751 40.0183 20.5803 39.0878 19.9599L36.5916 18.2958C36.0577 17.9399 35.4305 17.75 34.7888 17.75H26.6568ZM23.298 17.6412C24.1888 16.7504 25.397 16.25 26.6568 16.25H34.7888C35.7266 16.25 36.6434 16.5276 37.4237 17.0478L39.9198 18.7119C41.3171 19.6434 41.887 21.3493 41.441 22.8804L44.8107 26.25H49.9166C51.4815 26.25 52.75 27.5185 52.75 29.0834C52.75 30.6482 51.4815 31.9167 49.9166 31.9167H44.6569C43.3971 31.9167 42.1889 31.4163 41.2981 30.5255L38.4498 27.6772L35.965 31.4044L39.3587 34.7981C40.2495 35.6889 40.7499 36.8971 40.7499 38.1569V49.5C40.7499 51.2949 39.2949 52.75 37.4999 52.75C35.705 52.75 34.2499 51.2949 34.2499 49.5V40.3107L31.0503 37.1111L27.7755 41.0409C26.873 42.1238 25.5361 42.75 24.1264 42.75H15.5C13.7051 42.75 12.25 41.2949 12.25 39.5C12.25 37.7051 13.7051 36.25 15.5 36.25H22.6893L26.7346 32.2048C26.1976 30.7884 26.3543 29.154 27.2555 27.8367L31.1477 22.1482L26.2864 21.7742L21.7803 26.2803C20.797 27.2636 19.2029 27.2636 18.2196 26.2803C17.2364 25.2971 17.2364 23.7029 18.2196 22.7197L23.298 17.6412ZM27.5149 33.5458L23.5303 37.5303C23.3897 37.671 23.1989 37.75 23 37.75H15.5C14.5335 37.75 13.75 38.5335 13.75 39.5C13.75 40.4665 14.5335 41.25 15.5 41.25H24.1264C25.091 41.25 26.0057 40.8216 26.6232 40.0806L29.9853 36.046L27.817 33.8777C27.7103 33.771 27.6096 33.6602 27.5149 33.5458ZM39.2984 26.4044L42.3588 29.4648C42.9683 30.0743 43.7949 30.4167 44.6569 30.4167H49.9166C50.653 30.4167 51.25 29.8198 51.25 29.0834C51.25 28.347 50.653 27.75 49.9166 27.75H44.5C44.3011 27.75 44.1103 27.671 43.9697 27.5303L40.7165 24.2772L39.2984 26.4044ZM15 13.25C14.5858 13.25 14.25 13.5858 14.25 14C14.25 14.4142 14.5858 14.75 15 14.75H22C22.4142 14.75 22.75 14.4142 22.75 14C22.75 13.5858 22.4142 13.25 22 13.25H15ZM9 17.25C8.58579 17.25 8.25 17.5858 8.25 18C8.25 18.4142 8.58579 18.75 9 18.75H16C16.4142 18.75 16.75 18.4142 16.75 18C16.75 17.5858 16.4142 17.25 16 17.25H9ZM14.5 28.25C14.0858 28.25 13.75 28.5858 13.75 29C13.75 29.4142 14.0858 29.75 14.5 29.75H21.5C21.9142 29.75 22.25 29.4142 22.25 29C22.25 28.5858 21.9142 28.25 21.5 28.25H14.5ZM9 32.25C8.58579 32.25 8.25 32.5858 8.25 33C8.25 33.4142 8.58579 33.75 9 33.75H16C16.4142 33.75 16.75 33.4142 16.75 33C16.75 32.5858 16.4142 32.25 16 32.25H9Z" fill="#13AAE0"/>
</svg>
