<svg width="60" height="60" viewBox="0 0 60 60" fill="none" xmlns="http://www.w3.org/2000/svg">
<path fill-rule="evenodd" clip-rule="evenodd" d="M7.25 14C7.25 10.2721 10.2721 7.25 14 7.25H46C49.7279 7.25 52.75 10.2721 52.75 14V46C52.75 49.7279 49.7279 52.75 46 52.75H14C10.2721 52.75 7.25 49.7279 7.25 46V14ZM14 8.75C11.1005 8.75 8.75 11.1005 8.75 14V46C8.75 48.8995 11.1005 51.25 14 51.25H46C48.8995 51.25 51.25 48.8995 51.25 46V14C51.25 11.1005 48.8995 8.75 46 8.75H14Z" fill="#13AAE0"/>
<path fill-rule="evenodd" clip-rule="evenodd" d="M19.8772 15.0676L21.5752 23.2486C24.2774 22.5957 27.0988 22.25 30 22.25C31.165 22.25 32.3172 22.3058 33.4541 22.4148L36.3292 16.6646C36.5144 16.2941 36.9649 16.1439 37.3354 16.3292C37.7059 16.5144 37.8561 16.9649 37.6708 17.3354L35.0374 22.6022C36.1849 22.7641 37.3149 22.9804 38.4248 23.2486L40.1228 15.0676C36.8941 14.2082 33.5011 13.75 30 13.75C26.4989 13.75 23.1059 14.2082 19.8772 15.0676ZM18.7942 13.8103C22.3552 12.794 26.1147 12.25 30 12.25C33.8853 12.25 37.6448 12.794 41.2058 13.8103C41.5836 13.9181 41.8142 14.2992 41.7344 14.6839L39.7344 24.3204C39.6925 24.5221 39.5695 24.6978 39.3942 24.806C39.2189 24.9143 39.0068 24.9457 38.8077 24.8929C37.1862 24.4627 35.5173 24.1484 33.8105 23.9595C32.5596 23.8211 31.2883 23.75 30 23.75C26.954 23.75 24.0019 24.1474 21.1923 24.8929C20.9932 24.9457 20.7811 24.9143 20.6058 24.806C20.4305 24.6978 20.3075 24.5221 20.2656 24.3204L18.2656 14.6839C18.1858 14.2992 18.4164 13.9181 18.7942 13.8103Z" fill="#13AAE0"/>
</svg>
