<svg width="60" height="60" viewBox="0 0 60 60" fill="none" xmlns="http://www.w3.org/2000/svg">
<path fill-rule="evenodd" clip-rule="evenodd" d="M22.4533 16.5976C26.0029 13.9047 28.8089 12.8564 31.1355 12.6535C33.4581 12.4509 35.3976 13.0816 37.2496 13.9317C37.8546 14.2094 38.4283 14.4995 39.0074 14.7924C39.3326 14.9568 39.6596 15.1221 39.9948 15.2867C40.9048 15.7333 41.8399 16.1547 42.8133 16.4388C44.2111 16.8467 45.6706 16.9652 47.2622 16.5295L45.1394 20.2445C44.5566 21.2644 44.25 22.4188 44.25 23.5934V28.2442C38.9731 28.1622 35.0175 27.2241 31.772 26.2799C31.0906 26.0817 30.4266 25.8788 29.7843 25.6825C28.8467 25.396 27.9554 25.1237 27.1239 24.9007C25.7012 24.5192 24.3465 24.2501 23 24.2501C19.8734 24.2501 17.3202 25.3985 15.75 26.4477V22C15.75 19.1006 18.1005 16.75 21 16.75H22C22.1637 16.75 22.3229 16.6965 22.4533 16.5976ZM45.75 23.5934V28.25H46.5C48.8472 28.25 50.75 30.1528 50.75 32.5C50.75 34.8473 48.8472 36.75 46.5 36.75H45.7313C45.3407 44.5477 38.8947 50.7501 31 50.7501H29C21.1053 50.7501 14.6593 44.5477 14.2687 36.75H13.5C11.1528 36.75 9.25 34.8473 9.25 32.5C9.25 30.1528 11.1528 28.25 13.5 28.25H14.25V22C14.25 18.2721 17.2721 15.25 21 15.25H21.7492C25.3592 12.5517 28.3653 11.3894 31.0051 11.1592C33.6981 10.9243 35.9149 11.6686 37.8754 12.5685C38.5025 12.8563 39.1257 13.1713 39.7237 13.4735C40.0425 13.6346 40.3543 13.7922 40.6556 13.9401C41.5444 14.3763 42.3867 14.7517 43.2336 14.9989C44.8835 15.4804 46.58 15.4865 48.6358 14.3444C48.93 14.181 49.297 14.2335 49.5335 14.4729C49.77 14.7123 49.8181 15.08 49.6512 15.3722L46.4417 20.9887C45.9884 21.782 45.75 22.6798 45.75 23.5934ZM31.353 27.7202C34.6801 28.6881 38.7824 29.662 44.25 29.7444V36C44.25 43.3178 38.3178 49.2501 31 49.2501H29C21.6822 49.2501 15.75 43.3178 15.75 36V28.3257C16.8249 27.3826 19.5037 25.7501 23 25.7501C24.1535 25.7501 25.3613 25.981 26.7354 26.3495C27.5527 26.5687 28.3921 26.8254 29.301 27.1035C29.9444 27.3003 30.6232 27.5079 31.353 27.7202ZM46.5 29.75H45.75V35.25H46.5C48.0188 35.25 49.25 34.0188 49.25 32.5C49.25 30.9813 48.0188 29.75 46.5 29.75ZM13.5 29.75H14.25V35.25H13.5C11.9812 35.25 10.75 34.0188 10.75 32.5C10.75 30.9813 11.9812 29.75 13.5 29.75ZM21.3354 31.3293C20.9649 31.144 20.5144 31.2942 20.3292 31.6647C20.1439 32.0352 20.2941 32.4857 20.6646 32.6709L23.3229 34.0001L20.6646 35.3293C20.2941 35.5145 20.1439 35.965 20.3292 36.3355C20.5144 36.706 20.9649 36.8562 21.3354 36.6709L25.3354 34.6709C25.5895 34.5439 25.75 34.2842 25.75 34.0001C25.75 33.716 25.5895 33.4563 25.3354 33.3293L21.3354 31.3293ZM39.3354 32.6709C39.7059 32.4857 39.8561 32.0352 39.6708 31.6647C39.4856 31.2942 39.0351 31.144 38.6646 31.3293L34.6646 33.3293C34.4105 33.4563 34.25 33.716 34.25 34.0001C34.25 34.2842 34.4105 34.5439 34.6646 34.6709L38.6646 36.6709C39.0351 36.8562 39.4856 36.706 39.6708 36.3355C39.8561 35.965 39.7059 35.5145 39.3354 35.3293L36.6771 34.0001L39.3354 32.6709ZM27.416 44.624C28.6355 43.8111 30.8376 43.7573 32.6646 44.6708C33.0351 44.8561 33.4856 44.7059 33.6708 44.3354C33.8561 43.9649 33.7059 43.5144 33.3354 43.3292C31.1624 42.2427 28.3645 42.189 26.584 43.376C26.2393 43.6057 26.1462 44.0714 26.376 44.416C26.6057 44.7607 27.0714 44.8538 27.416 44.624ZM30.7115 17.2371C30.8425 16.8442 30.6301 16.4194 30.2372 16.2884C29.8442 16.1575 29.4195 16.3698 29.2885 16.7628L28.2885 19.7628C28.2123 19.9915 28.2506 20.2429 28.3916 20.4385C28.5325 20.6341 28.7589 20.75 29 20.75H29.9594L29.2885 22.7628C29.1575 23.1557 29.3699 23.5805 29.7628 23.7115C30.1558 23.8425 30.5805 23.6301 30.7115 23.2371L31.7115 20.2371C31.7878 20.0084 31.7494 19.757 31.6084 19.5614C31.4675 19.3658 31.2411 19.25 31 19.25H30.0406L30.7115 17.2371ZM6.72754 17.8182C6.62708 17.4163 6.21988 17.172 5.81803 17.2724C5.41619 17.3729 5.17186 17.7801 5.27233 18.182L6.27233 22.182C6.3275 22.4027 6.47986 22.5864 6.68654 22.6814C6.89322 22.7765 7.13187 22.7726 7.33534 22.6709L8.49909 22.089L9.27233 25.182C9.37279 25.5838 9.77999 25.8281 10.1818 25.7277C10.5837 25.6272 10.828 25.22 10.7275 24.8182L9.72754 20.8182C9.67237 20.5975 9.52 20.4137 9.31333 20.3187C9.10665 20.2236 8.868 20.2275 8.66452 20.3292L7.50078 20.9111L6.72754 17.8182ZM54.4161 17.3759C54.7607 17.6057 54.8539 18.0713 54.6241 18.416L53.0954 20.709L54.3355 21.329C54.5279 21.4252 54.6697 21.5994 54.7249 21.8073C54.7802 22.0152 54.7435 22.2368 54.6241 22.4158L52.6241 25.416C52.3944 25.7606 51.9287 25.8538 51.5841 25.624C51.2394 25.3942 51.1463 24.9286 51.376 24.5839L52.9048 22.2908L51.6647 21.6708C51.4723 21.5746 51.3304 21.4004 51.2752 21.1925C51.22 20.9846 51.2567 20.7629 51.376 20.5839L53.376 17.5839C53.6058 17.2393 54.0715 17.1462 54.4161 17.3759Z" fill="#13AAE0"/>
</svg>
