<svg width="60" height="60" viewBox="0 0 60 60" fill="none" xmlns="http://www.w3.org/2000/svg">
<path fill-rule="evenodd" clip-rule="evenodd" d="M30 10.25C27.7752 10.25 25.6821 10.8204 23.8607 11.8229C24.4113 8.93385 26.9506 6.75 30 6.75C33.0494 6.75 35.5887 8.93385 36.1393 11.8229C34.3179 10.8204 32.2248 10.25 30 10.25ZM30 5.25C34.2382 5.25 37.6818 8.65203 37.749 12.8742C40.7881 15.2034 42.75 18.8726 42.75 23V27C42.75 28.8712 41.3794 30.4223 39.5874 30.7043C39.0264 32.658 38.0877 34.469 36.75 35.8803V39.3836C37.1208 39.4658 37.6373 39.5941 38.2518 39.7832C39.5122 40.171 41.1995 40.8191 42.8931 41.8613C46.2959 43.9553 49.75 47.6677 49.75 54C49.75 54.4142 49.4142 54.75 49 54.75H11C10.5858 54.75 10.25 54.4142 10.25 54C10.25 47.6677 13.7041 43.9553 17.1069 41.8613C18.8005 40.8191 20.4878 40.171 21.7482 39.7832C22.3627 39.5941 22.8792 39.4658 23.25 39.3836V35.8803C21.9123 34.469 20.9736 32.658 20.4126 30.7043C18.6206 30.4223 17.25 28.8712 17.25 27V23C17.25 18.8726 19.2119 15.2034 22.251 12.8742C22.3182 8.65203 25.7618 5.25 30 5.25ZM36.562 13.8609C39.1393 15.715 40.8989 18.6297 41.203 21.965C40.7167 21.6114 40.142 21.3718 39.5183 21.2855C39.2116 20.5835 38.7226 19.666 38.071 18.7616C37.272 17.6525 36.1865 16.5047 34.8354 15.8292C34.5349 15.6789 34.1711 15.7469 33.945 15.9955C31.7225 18.4404 29.2176 18.3774 26.725 18.3148L26.6437 18.3128C25.4266 18.2823 24.1153 18.2528 22.9842 18.6815C21.8918 19.0955 21.033 19.9029 20.4644 21.288C19.8474 21.3762 19.2788 21.6146 18.797 21.965C19.1011 18.6297 20.8607 15.715 23.438 13.8609C25.2849 12.5323 27.55 11.75 30 11.75C32.45 11.75 34.7151 12.5323 36.562 13.8609ZM39 22.75C40.2426 22.75 41.25 23.7574 41.25 25V27C41.25 28.2426 40.2426 29.25 39 29.25C38.6558 29.25 38.3559 29.4842 38.2724 29.8181C37.7579 31.8761 36.8139 33.7138 35.4724 35.0414C34.0984 36.4012 32.2858 37.25 30 37.25C27.7142 37.25 25.9016 36.4012 24.5276 35.0414C23.1861 33.7138 22.2421 31.8761 21.7276 29.8181C21.6441 29.4842 21.3442 29.25 21 29.25C19.7574 29.25 18.75 28.2426 18.75 27V25C18.75 23.7574 19.7574 22.75 21 22.75C21.3228 22.75 21.6094 22.5434 21.7115 22.2372C22.1519 20.9161 22.79 20.3592 23.5158 20.0841C24.3222 19.7785 25.3234 19.7802 26.6063 19.8123L26.7857 19.8169C29.1138 19.8769 32.0465 19.9524 34.6353 17.4385C35.4883 17.9826 36.2388 18.7846 36.854 19.6384C37.5762 20.6408 38.0702 21.6566 38.2978 22.2633C38.4075 22.5561 38.6874 22.75 39 22.75ZM30 38.75C32.049 38.75 33.8041 38.1634 35.25 37.1681V39.7968C35.2123 39.8556 35.1611 39.9311 35.0953 40.0187C34.916 40.2578 34.6308 40.5849 34.219 40.9143C33.4049 41.5656 32.0678 42.25 30 42.25C27.9322 42.25 26.5951 41.5656 25.781 40.9143C25.3692 40.5849 25.084 40.2578 24.9047 40.0187C24.8389 39.9311 24.7877 39.8556 24.75 39.7968V37.1681C26.1959 38.1634 27.951 38.75 30 38.75ZM36.2953 40.9188C36.3173 40.8894 36.3382 40.8609 36.3582 40.8333L36.3976 40.8419C36.7358 40.9162 37.2235 41.0361 37.8107 41.2168C38.9878 41.579 40.5505 42.1809 42.1069 43.1387C45.0649 44.959 47.9761 48.0396 48.2318 53.25H11.7682C12.0239 48.0396 14.9351 44.959 17.8931 43.1387C19.4495 42.1809 21.0122 41.579 22.1893 41.2168C22.7765 41.0361 23.2642 40.9162 23.6024 40.8419L23.6418 40.8333C23.6618 40.8609 23.6827 40.8894 23.7047 40.9188C23.9473 41.2422 24.3183 41.6651 24.844 42.0857C25.9049 42.9344 27.5678 43.75 30 43.75C32.4322 43.75 34.0951 42.9344 35.156 42.0857C35.6817 41.6651 36.0527 41.2422 36.2953 40.9188ZM32.75 26.5C32.75 25.5335 33.5335 24.75 34.5 24.75C35.4665 24.75 36.25 25.5335 36.25 26.5C36.25 27.4665 35.4665 28.25 34.5 28.25C33.5335 28.25 32.75 27.4665 32.75 26.5ZM31.2533 26.3525C31.2511 26.4014 31.25 26.4506 31.25 26.5C31.25 28.2949 32.7051 29.75 34.5 29.75C36.2949 29.75 37.75 28.2949 37.75 26.5C37.75 24.7051 36.2949 23.25 34.5 23.25C33.2974 23.25 32.2474 23.9032 31.6853 24.8741C31.1576 24.6182 30.5668 24.5 30 24.5C29.4332 24.5 28.8424 24.6182 28.3147 24.8741C27.7526 23.9032 26.7026 23.25 25.5 23.25C23.7051 23.25 22.25 24.7051 22.25 26.5C22.25 28.2949 23.7051 29.75 25.5 29.75C27.2949 29.75 28.75 28.2949 28.75 26.5C28.75 26.4506 28.7489 26.4014 28.7467 26.3525C29.0726 26.131 29.5169 26 30 26C30.4831 26 30.9274 26.131 31.2533 26.3525ZM25.5 24.75C24.5335 24.75 23.75 25.5335 23.75 26.5C23.75 27.4665 24.5335 28.25 25.5 28.25C26.4665 28.25 27.25 27.4665 27.25 26.5C27.25 25.5335 26.4665 24.75 25.5 24.75Z" fill="#13AAE0"/>
</svg>
