<svg width="60" height="60" viewBox="0 0 60 60" fill="none" xmlns="http://www.w3.org/2000/svg">
<path fill-rule="evenodd" clip-rule="evenodd" d="M37.242 8.09174C38.7293 6.64194 40.7597 5.75 43 5.75C47.5564 5.75 51.25 9.44365 51.25 14C51.25 18.5563 47.5564 22.25 43 22.25C39.9211 22.25 37.2351 20.5638 35.8168 18.0609C35.6259 17.7239 35.2098 17.5877 34.8566 17.7467C34.1384 18.0698 33.3412 18.25 32.5 18.25C30.461 18.25 28.6693 17.1893 27.6473 15.586C27.5348 15.4094 27.3535 15.288 27.1474 15.251C26.9414 15.2139 26.7292 15.2648 26.5622 15.3911C25.8498 15.9304 24.9633 16.25 24 16.25C22.6627 16.25 21.47 15.6332 20.6897 14.6657C20.5567 14.5008 20.3602 14.3999 20.1486 14.3878C19.9371 14.3757 19.7303 14.4537 19.5794 14.6025C19.1724 15.0037 18.6157 15.25 18 15.25C17.5858 15.25 17.25 15.5858 17.25 16C17.25 16.4142 17.5858 16.75 18 16.75C18.7461 16.75 19.442 16.5316 20.0262 16.1559C21.058 17.1426 22.4583 17.75 24 17.75C25.0253 17.75 25.9891 17.4811 26.8233 17.0101C28.1507 18.6786 30.2 19.75 32.5 19.75C33.3229 19.75 34.115 19.6126 34.8538 19.3592C36.5965 22.003 39.5938 23.75 43 23.75C48.3848 23.75 52.75 19.3848 52.75 14C52.75 8.61522 48.3848 4.25 43 4.25C40.5891 4.25 38.3814 5.1259 36.6799 6.57559C35.4987 5.74087 34.0559 5.25 32.5 5.25C30.5067 5.25 28.7009 6.05513 27.3911 7.35598C26.4405 6.66093 25.2677 6.25 24 6.25C21.7763 6.25 19.849 7.51193 18.8923 9.35699C18.6059 9.28704 18.307 9.25 18 9.25C16.1792 9.25 14.6615 10.5477 14.3213 12.2686C14.2158 12.2563 14.1086 12.25 14 12.25C12.4812 12.25 11.25 13.4812 11.25 15C11.25 15.4142 11.5858 15.75 12 15.75C12.4142 15.75 12.75 15.4142 12.75 15C12.75 14.3096 13.3096 13.75 14 13.75C14.2321 13.75 14.4473 13.8126 14.6322 13.9213C14.8746 14.0638 15.1764 14.0588 15.4139 13.9083C15.6514 13.7578 15.7848 13.487 15.7593 13.207C15.7532 13.139 15.75 13.07 15.75 13C15.75 11.7574 16.7574 10.75 18 10.75C18.3502 10.75 18.6797 10.8295 18.9733 10.9707C19.1644 11.0625 19.3853 11.0692 19.5816 10.9892C19.7779 10.9091 19.9311 10.7498 20.0034 10.5505C20.5964 8.91589 22.163 7.75 24 7.75C25.1425 7.75 26.1783 8.1998 26.9427 8.93354C27.0937 9.07853 27.2985 9.15378 27.5075 9.1411C27.7165 9.12841 27.9107 9.02895 28.0431 8.86675C29.0987 7.57358 30.7029 6.75 32.5 6.75C33.9247 6.75 35.2268 7.26721 36.2314 8.12505C36.5263 8.37677 36.9644 8.36234 37.242 8.09174ZM11 18.25C10.619 18.25 10.2986 18.5356 10.2549 18.914L7.33156 44.25H6C5.58579 44.25 5.25 44.5858 5.25 45V55C5.25 55.4142 5.58579 55.75 6 55.75H54C54.4142 55.75 54.75 55.4142 54.75 55V27C54.75 26.5858 54.4142 26.25 54 26.25H45C44.5858 26.25 44.25 26.5858 44.25 27V31.25H38.75V27C38.75 26.5858 38.4142 26.25 38 26.25H29C28.5858 26.25 28.25 26.5858 28.25 27V35.6893L19.6893 44.25H19.6684L16.7451 18.914C16.7014 18.5356 16.381 18.25 16 18.25H11ZM18.1585 44.25H8.84151L11.0915 24.75H15.9085L18.1585 44.25ZM15.7354 23.25H11.2646L11.6684 19.75H15.3316L15.7354 23.25ZM38.75 32.75H44.25V35.25H38.75V32.75ZM29.75 36V27.75H37.25V36C37.25 36.4142 37.5858 36.75 38 36.75H45C45.4142 36.75 45.75 36.4142 45.75 36V27.75H53.25V54.25H6.75V45.75H20C20.1989 45.75 20.3897 45.671 20.5303 45.5303L29.5303 36.5303C29.671 36.3897 29.75 36.1989 29.75 36ZM32 40.25C31.5858 40.25 31.25 40.5858 31.25 41V50C31.25 50.4142 31.5858 50.75 32 50.75H35C35.4142 50.75 35.75 50.4142 35.75 50V41C35.75 40.5858 35.4142 40.25 35 40.25H32ZM32.75 49.25V41.75H34.25V49.25H32.75ZM39 40.25C38.5858 40.25 38.25 40.5858 38.25 41V50C38.25 50.4142 38.5858 50.75 39 50.75H42C42.4142 50.75 42.75 50.4142 42.75 50V41C42.75 40.5858 42.4142 40.25 42 40.25H39ZM39.75 49.25V41.75H41.25V49.25H39.75ZM46 40.25C45.5858 40.25 45.25 40.5858 45.25 41V50C45.25 50.4142 45.5858 50.75 46 50.75H49C49.4142 50.75 49.75 50.4142 49.75 50V41C49.75 40.5858 49.4142 40.25 49 40.25H46ZM46.75 49.25V41.75H48.25V49.25H46.75ZM10 49.25C9.58579 49.25 9.25 49.5858 9.25 50C9.25 50.4142 9.58579 50.75 10 50.75H27C27.4142 50.75 27.75 50.4142 27.75 50C27.75 49.5858 27.4142 49.25 27 49.25H10Z" fill="#13AAE0"/>
</svg>
