<svg width="60" height="60" viewBox="0 0 60 60" fill="none" xmlns="http://www.w3.org/2000/svg">
<path fill-rule="evenodd" clip-rule="evenodd" d="M28.6871 24.4226C30.1629 19.0101 31.907 14.763 33.5107 11.8856C34.3029 10.4642 35.0483 9.39986 35.6941 8.69681C32.2809 20.0574 32.2578 24.9342 33.2929 27.8627C33.6988 29.0112 34.2842 29.8703 34.7875 30.6089C34.9493 30.8464 35.1026 31.0714 35.2387 31.2895C35.8016 32.1915 36.25 33.1953 36.25 35C36.25 38.4518 33.4518 41.25 30 41.25C26.5482 41.25 23.7501 38.4518 23.75 35C23.75 33.4723 24.1751 32.4532 24.8103 31.4708C25.1012 31.021 25.4315 30.5856 25.8003 30.0994L25.9488 29.9036C26.3718 29.3448 26.8296 28.7282 27.2743 28.0082C27.9758 26.8727 28.365 25.6041 28.6871 24.4226ZM37 6.25C36.5584 6.25 36.1379 6.42284 35.765 6.6586C35.386 6.89814 35.0033 7.23586 34.6221 7.6467C33.8592 8.46872 33.0369 9.65463 32.2005 11.1553C30.5245 14.1624 28.7396 18.528 27.2399 24.0281C26.9212 25.1971 26.5771 26.2828 25.9982 27.2199C25.5928 27.8761 25.1711 28.4457 24.7528 28.9983L24.6059 29.192C24.2413 29.6724 23.8744 30.1558 23.5507 30.6564C22.7928 31.8285 22.2499 33.1262 22.25 35C22.2501 39.2802 25.7198 42.75 30 42.75C34.2802 42.75 37.75 39.2802 37.75 35C37.75 32.8717 37.1984 31.5965 36.5113 30.4954C36.3206 30.1898 36.1329 29.9141 35.9515 29.6475C35.476 28.9488 35.0426 28.312 34.7071 27.3628C33.7988 24.7929 33.7134 19.9815 37.7156 7.22451C37.7871 6.99672 37.7458 6.74851 37.6045 6.55608C37.4632 6.36366 37.2387 6.25 37 6.25ZM6 29.25C5.58579 29.25 5.25 29.5858 5.25 30C5.25 30.4142 5.58579 30.75 6 30.75H19.0424C18.5306 32.0687 18.25 33.5022 18.25 35C18.25 41.4893 23.5107 46.75 30 46.75C36.4893 46.75 41.75 41.4893 41.75 35C41.75 33.5022 41.4694 32.0687 40.9576 30.75H54C54.4142 30.75 54.75 30.4142 54.75 30C54.75 29.5858 54.4142 29.25 54 29.25H39.8006C39.5395 29.25 39.2971 29.3858 39.1608 29.6085C39.0246 29.8313 39.0139 30.1089 39.1328 30.3414C39.8469 31.7383 40.25 33.321 40.25 35C40.25 40.6609 35.6609 45.25 30 45.25C24.3391 45.25 19.75 40.6609 19.75 35C19.75 33.321 20.1531 31.7383 20.8672 30.3414C20.9861 30.1089 20.9754 29.8313 20.8392 29.6085C20.7029 29.3858 20.4605 29.25 20.1994 29.25H6ZM40 51C40 51.5523 39.5523 52 39 52C38.4477 52 38 51.5523 38 51C38 50.4477 38.4477 50 39 50C39.5523 50 40 50.4477 40 51ZM21 52C21.5523 52 22 51.5523 22 51C22 50.4477 21.5523 50 21 50C20.4477 50 20 50.4477 20 51C20 51.5523 20.4477 52 21 52ZM19 47C19 47.5523 18.5523 48 18 48C17.4477 48 17 47.5523 17 47C17 46.4477 17.4477 46 18 46C18.5523 46 19 46.4477 19 47ZM15 44C15.5523 44 16 43.5523 16 43C16 42.4477 15.5523 42 15 42C14.4477 42 14 42.4477 14 43C14 43.5523 14.4477 44 15 44ZM16 35C16 35.5523 15.5523 36 15 36C14.4477 36 14 35.5523 14 35C14 34.4477 14.4477 34 15 34C15.5523 34 16 34.4477 16 35ZM48 48C48.5523 48 49 47.5523 49 47C49 46.4477 48.5523 46 48 46C47.4477 46 47 46.4477 47 47C47 47.5523 47.4477 48 48 48ZM49 39C49 39.5523 48.5523 40 48 40C47.4477 40 47 39.5523 47 39C47 38.4477 47.4477 38 48 38C48.5523 38 49 38.4477 49 39ZM45 44C45.5523 44 46 43.5523 46 43C46 42.4477 45.5523 42 45 42C44.4477 42 44 42.4477 44 43C44 43.5523 44.4477 44 45 44ZM46 35C46 35.5523 45.5523 36 45 36C44.4477 36 44 35.5523 44 35C44 34.4477 44.4477 34 45 34C45.5523 34 46 34.4477 46 35ZM51 44C51.5523 44 52 43.5523 52 43C52 42.4477 51.5523 42 51 42C50.4477 42 50 42.4477 50 43C50 43.5523 50.4477 44 51 44ZM52 35C52 35.5523 51.5523 36 51 36C50.4477 36 50 35.5523 50 35C50 34.4477 50.4477 34 51 34C51.5523 34 52 34.4477 52 35ZM33 52C33.5523 52 34 51.5523 34 51C34 50.4477 33.5523 50 33 50C32.4477 50 32 50.4477 32 51C32 51.5523 32.4477 52 33 52ZM16 51C16 51.5523 15.5523 52 15 52C14.4477 52 14 51.5523 14 51C14 50.4477 14.4477 50 15 50C15.5523 50 16 50.4477 16 51ZM12 48C12.5523 48 13 47.5523 13 47C13 46.4477 12.5523 46 12 46C11.4477 46 11 46.4477 11 47C11 47.5523 11.4477 48 12 48ZM13 39C13 39.5523 12.5523 40 12 40C11.4477 40 11 39.5523 11 39C11 38.4477 11.4477 38 12 38C12.5523 38 13 38.4477 13 39ZM9 44C9.55228 44 10 43.5523 10 43C10 42.4477 9.55228 42 9 42C8.44772 42 8 42.4477 8 43C8 43.5523 8.44772 44 9 44ZM10 35C10 35.5523 9.55228 36 9 36C8.44772 36 8 35.5523 8 35C8 34.4477 8.44772 34 9 34C9.55228 34 10 34.4477 10 35ZM45 52C45.5523 52 46 51.5523 46 51C46 50.4477 45.5523 50 45 50C44.4477 50 44 50.4477 44 51C44 51.5523 44.4477 52 45 52ZM43 47C43 47.5523 42.5523 48 42 48C41.4477 48 41 47.5523 41 47C41 46.4477 41.4477 46 42 46C42.5523 46 43 46.4477 43 47ZM27 52C27.5523 52 28 51.5523 28 51C28 50.4477 27.5523 50 27 50C26.4477 50 26 50.4477 26 51C26 51.5523 26.4477 52 27 52Z" fill="#13AAE0"/>
</svg>
