<svg width="60" height="60" viewBox="0 0 60 60" fill="none" xmlns="http://www.w3.org/2000/svg">
<path fill-rule="evenodd" clip-rule="evenodd" d="M31.1355 8.65348C28.8089 8.85642 26.0029 9.90473 22.4533 12.5976C22.3229 12.6965 22.1637 12.75 22 12.75H21C18.1005 12.75 15.75 15.1006 15.75 18V22.4477C17.3202 21.3985 19.8734 20.2501 23 20.2501C24.3465 20.2501 25.7012 20.5192 27.1239 20.9007C27.9554 21.1237 28.8467 21.396 29.7843 21.6825C30.4266 21.8788 31.0906 22.0817 31.772 22.2799C35.0175 23.2241 38.9731 24.1622 44.25 24.2442V19.5934C44.25 18.4188 44.5566 17.2644 45.1394 16.2445L47.2622 12.5295C45.6706 12.9652 44.2111 12.8467 42.8133 12.4388C41.8399 12.1547 40.9048 11.7333 39.9948 11.2867C39.6596 11.1221 39.3326 10.9568 39.0074 10.7924C38.4283 10.4995 37.8546 10.2094 37.2496 9.93171C35.3976 9.08159 33.4581 8.45089 31.1355 8.65348ZM45.75 24.25V19.5934C45.75 18.6798 45.9884 17.782 46.4417 16.9887L49.6512 11.3722C49.8181 11.08 49.77 10.7123 49.5335 10.4729C49.297 10.2335 48.93 10.181 48.6358 10.3444C46.58 11.4865 44.8835 11.4804 43.2336 10.9989C42.3867 10.7517 41.5444 10.3763 40.6556 9.94008C40.3543 9.79218 40.0426 9.63466 39.7238 9.47354C39.1257 9.17128 38.5026 8.85635 37.8754 8.56846C35.9149 7.66857 33.6981 6.92426 31.0051 7.15916C28.3653 7.38942 25.3592 8.55173 21.7492 11.25H21C17.2721 11.25 14.25 14.2721 14.25 18V24.25H13.5C11.1528 24.25 9.25 26.1528 9.25 28.5C9.25 30.8473 11.1528 32.75 13.5 32.75H14.2687C14.427 35.9071 15.5783 38.8036 17.4159 41.1318C16.3787 42.1679 15.3667 43.3069 14.408 44.5395C14.2353 44.7616 14.2014 45.0615 14.3201 45.3165C14.4388 45.5715 14.6902 45.7387 14.9713 45.7494C16.2356 45.7979 17.0895 46.0088 17.772 46.3932C18.4551 46.7781 19.0396 47.3778 19.694 48.3377C20.2847 49.204 21.2727 49.678 22.2897 49.6655C23.3131 49.653 23.9783 49.8263 24.5379 50.1995C25.1222 50.5893 25.6735 51.2505 26.3574 52.3867C26.4888 52.6051 26.7222 52.7418 26.977 52.7496C27.2317 52.7575 27.473 52.6354 27.6176 52.4255C29.0585 50.3338 30.2259 48.445 31.148 46.7493C38.9751 46.6724 45.3432 40.499 45.7313 32.75H46.5C48.8472 32.75 50.75 30.8473 50.75 28.5C50.75 26.1528 48.8472 24.25 46.5 24.25H45.75ZM44.25 25.7444C38.7824 25.662 34.6801 24.6881 31.353 23.7202C30.623 23.5078 29.9446 23.3003 29.3011 23.1035C28.3921 22.8254 27.5527 22.5687 26.7354 22.3495C25.3613 21.981 24.1535 21.7501 23 21.7501C19.5037 21.7501 16.8249 23.3826 15.75 24.3257V32C15.75 35.0464 16.7773 37.8514 18.5051 40.0894C20.6476 38.1261 22.8631 36.5954 24.9165 35.5857C27.1329 34.4959 29.2632 33.963 30.9321 34.2707C31.7873 34.4284 32.5435 34.8126 33.0943 35.4741C33.6419 36.1319 33.9299 36.9958 33.979 38.0138C34.065 39.7997 33.4235 42.1894 31.9408 45.2172C38.8196 44.7346 44.25 39.0015 44.25 32V25.7444ZM45.75 25.75H46.5C48.0188 25.75 49.25 26.9813 49.25 28.5C49.25 30.0188 48.0188 31.25 46.5 31.25H45.75V25.75ZM14.25 31.25V25.75H13.5C11.9812 25.75 10.75 26.9813 10.75 28.5C10.75 30.0188 11.9812 31.25 13.5 31.25H14.25ZM20.3292 27.6647C20.5144 27.2942 20.9649 27.144 21.3354 27.3293L25.3354 29.3293C25.5895 29.4563 25.75 29.716 25.75 30.0001C25.75 30.2842 25.5895 30.5439 25.3354 30.6709L21.3354 32.6709C20.9649 32.8562 20.5144 32.706 20.3292 32.3355C20.1439 31.965 20.2941 31.5145 20.6646 31.3293L23.3229 30.0001L20.6646 28.6709C20.2941 28.4857 20.1439 28.0352 20.3292 27.6647ZM39.6708 27.6647C39.8561 28.0352 39.7059 28.4857 39.3354 28.6709L36.6771 30.0001L39.3354 31.3293C39.7059 31.5145 39.8561 31.965 39.6708 32.3355C39.4856 32.706 39.0351 32.8562 38.6646 32.6709L34.6646 30.6709C34.4105 30.5439 34.25 30.2842 34.25 30.0001C34.25 29.716 34.4105 29.4563 34.6646 29.3293L38.6646 27.3293C39.0351 27.144 39.4856 27.2942 39.6708 27.6647ZM25.5784 36.9318C23.495 37.9562 21.1832 39.5843 18.9532 41.7257C18.1026 42.5425 17.2654 43.4324 16.4588 44.3899C17.225 44.5199 17.8969 44.7419 18.5083 45.0863C19.4724 45.6295 20.2131 46.4363 20.9334 47.4927C21.2235 47.9182 21.725 48.1723 22.2714 48.1656C23.4841 48.1508 24.4789 48.3571 25.3702 48.9517C25.9826 49.3601 26.5069 49.9268 27.0144 50.6437C28.2479 48.7997 29.2466 47.1375 30.0366 45.6485C31.8947 42.1465 32.5574 39.678 32.4807 38.0859C32.4431 37.3062 32.2309 36.7814 31.9415 36.4339C31.6554 36.0902 31.238 35.8524 30.6601 35.7458C29.4627 35.525 27.6884 35.8943 25.5784 36.9318ZM29.7421 38.8912C29.8022 39.301 29.5187 39.682 29.1088 39.7421C27.2735 40.0113 26.2838 40.4839 24.391 41.6401C24.0375 41.856 23.5759 41.7445 23.36 41.391C23.144 41.0375 23.2556 40.5759 23.609 40.36C25.5838 39.1538 26.7725 38.5687 28.8912 38.258C29.301 38.1979 29.682 38.4814 29.7421 38.8912Z" fill="#13AAE0"/>
</svg>
