<svg width="60" height="60" viewBox="0 0 60 60" fill="none" xmlns="http://www.w3.org/2000/svg">
<path fill-rule="evenodd" clip-rule="evenodd" d="M24.25 9C24.25 7.48122 25.4812 6.25 27 6.25H33C34.5188 6.25 35.75 7.48122 35.75 9V10.25H39C41.6234 10.25 43.75 12.3766 43.75 15V49C43.75 51.6234 41.6234 53.75 39 53.75H21C18.3766 53.75 16.25 51.6234 16.25 49V15C16.25 12.3766 18.3766 10.25 21 10.25H24.25V9ZM34.25 9V10.25H25.75V9C25.75 8.30964 26.3096 7.75 27 7.75H33C33.6904 7.75 34.25 8.30964 34.25 9ZM21 11.75C19.2051 11.75 17.75 13.2051 17.75 15V49C17.75 50.7949 19.2051 52.25 21 52.25H39C40.7949 52.25 42.25 50.7949 42.25 49V15C42.25 13.2051 40.7949 11.75 39 11.75H21ZM22 43.25C20.4812 43.25 19.25 44.4812 19.25 46V48C19.25 49.5188 20.4812 50.75 22 50.75H38C39.5188 50.75 40.75 49.5188 40.75 48V46C40.75 44.4812 39.5188 43.25 38 43.25H22ZM20.75 46C20.75 45.3096 21.3096 44.75 22 44.75H38C38.6904 44.75 39.25 45.3096 39.25 46V48C39.25 48.6904 38.6904 49.25 38 49.25H22C21.3096 49.25 20.75 48.6904 20.75 48V46ZM31.7442 18.093C31.7877 17.7449 31.5841 17.4131 31.254 17.2943C30.924 17.1755 30.5556 17.3013 30.3673 17.5973L23.3673 28.5973C23.2203 28.8282 23.2108 29.1209 23.3425 29.3609C23.4743 29.6008 23.7263 29.75 24 29.75H29.065L27.2679 37.8373C27.1895 38.1898 27.3735 38.548 27.7056 38.6898C28.0378 38.8315 28.4237 38.7164 28.624 38.416L36.624 26.416C36.7775 26.1858 36.7918 25.8899 36.6613 25.6461C36.5307 25.4022 36.2766 25.25 36 25.25H30.8496L31.7442 18.093ZM30 28.25H25.3663L29.8421 21.2165L29.2558 25.9069C29.2291 26.1204 29.2954 26.335 29.4377 26.4963C29.5801 26.6576 29.7849 26.75 30 26.75H34.5986L29.6031 34.2432L30.7321 29.1627C30.7815 28.9406 30.7274 28.7081 30.585 28.5307C30.4427 28.3532 30.2275 28.25 30 28.25Z" fill="#13AAE0"/>
</svg>
