<svg width="60" height="60" viewBox="0 0 60 60" fill="none" xmlns="http://www.w3.org/2000/svg">
<path fill-rule="evenodd" clip-rule="evenodd" d="M16.975 5.25042C17.2404 5.24156 17.4906 5.37367 17.633 5.59777C18.1621 6.43032 18.7567 6.93742 19.3907 7.24021C20.0311 7.54605 20.7602 7.66641 21.5881 7.64861C22.9782 7.61873 24.5059 7.21289 26.1872 6.76623C26.5673 6.66525 26.9553 6.56218 27.3513 6.46089C29.4283 5.92968 31.6941 5.46197 33.85 5.89768C35.9639 6.3249 37.8778 7.59671 39.4289 10.2355C41.6079 10.2127 43.1821 10.9136 44.2027 12.1569C45.2649 13.4508 45.6174 15.2021 45.6091 16.9411C45.6007 18.6934 45.2262 20.5361 44.7239 22.1246C44.3004 23.4639 43.7713 24.6687 43.2584 25.5144C43.5723 26.1074 43.75 26.7836 43.75 27.5C43.75 29.7672 41.9747 31.6198 39.7384 31.7434C39.6876 32.8286 39.461 33.9461 38.8862 34.9559C38.4111 35.7906 37.7096 36.8354 36.75 37.8074V42.3726C39.7376 42.9452 43.507 44.1767 46.6248 45.9754C49.9099 47.8706 52.75 50.5636 52.75 54C52.75 54.4142 52.4142 54.75 52 54.75H7C6.58579 54.75 6.25 54.4142 6.25 54C6.25 52.2554 7.05243 50.7084 8.25818 49.3854C9.46118 48.0655 11.1036 46.924 12.8958 45.9639C16.2422 44.1712 20.2391 42.943 23.25 42.372V37.8074C22.2904 36.8354 21.589 35.7905 21.1138 34.9559C20.5391 33.9461 20.3124 32.8286 20.2616 31.7434C18.0253 31.6198 16.25 29.7672 16.25 27.5V27C16.25 26.4956 16.35 26.0132 16.5314 25.5727C14.2956 22.2918 11.5667 14.3949 16.3416 5.64086C16.4687 5.40777 16.7096 5.25927 16.975 5.25042ZM17.4591 24.2422C17.9519 23.7879 18.5672 23.4637 19.25 23.325V18C19.25 17.5858 19.5858 17.25 20 17.25H34C37.1757 17.25 39.75 19.8244 39.75 23V23.2572C40.6993 23.3123 41.5648 23.6792 42.2456 24.2559C42.5994 23.5794 42.9729 22.6868 43.2937 21.6723C43.7647 20.1826 44.1016 18.4941 44.1091 16.9339C44.1167 15.3604 43.7897 14.0179 43.0433 13.1087C42.3275 12.2367 41.1171 11.6335 39.0416 11.7488C38.7526 11.7649 38.4802 11.6132 38.3416 11.3591C36.9316 8.77423 35.2764 7.71628 33.5529 7.36795C31.7658 7.00679 29.8003 7.38283 27.723 7.91411C27.3676 8.00499 27.0073 8.10108 26.6442 8.19792C24.9566 8.64796 23.2085 9.11413 21.6204 9.14827C20.6312 9.16953 19.6539 9.02817 18.7443 8.59377C18.1555 8.31258 17.615 7.91807 17.1281 7.39523C13.6223 14.7206 15.6272 21.2104 17.4591 24.2422ZM24.75 39.0811V42.8277C24.7812 42.8851 24.826 42.9619 24.8865 43.0527C25.04 43.283 25.2933 43.6015 25.6801 43.9238C26.4418 44.5586 27.7708 45.25 30 45.25C32.2292 45.25 33.5582 44.5586 34.3199 43.9238C34.7067 43.6015 34.96 43.283 35.1135 43.0527C35.174 42.9619 35.2188 42.8851 35.25 42.8277V39.0811C33.8717 40.0467 32.1326 40.75 30 40.75C27.8674 40.75 26.1283 40.0467 24.75 39.0811ZM36.3961 43.8322C36.3849 43.8494 36.3734 43.867 36.3615 43.8848C36.14 44.217 35.7933 44.6485 35.2801 45.0762C34.2418 45.9414 32.5708 46.75 30 46.75C27.4292 46.75 25.7582 45.9414 24.7199 45.0762C24.2067 44.6485 23.86 44.217 23.6385 43.8848C23.6265 43.8668 23.6149 43.8491 23.6036 43.8318C20.7107 44.3724 16.8228 45.5618 13.6042 47.2861C11.8964 48.201 10.4138 49.247 9.36682 50.3958C8.53229 51.3115 7.999 52.2637 7.81846 53.25H51.1882C50.8142 50.9862 48.7734 48.9467 45.8752 47.2746C42.8988 45.5575 39.2551 44.3717 36.3961 43.8322ZM20.75 18.75V24C20.75 24.4142 20.4142 24.75 20 24.75C19.1681 24.75 18.4407 25.2011 18.0506 25.8755C17.8596 26.2057 17.75 26.5889 17.75 27V27.5C17.75 29.0188 18.9812 30.25 20.5 30.25H21C21.4142 30.25 21.75 30.5858 21.75 31V31.237C21.75 32.3304 21.9282 33.3543 22.4174 34.2138C22.8823 35.0305 23.5746 36.047 24.519 36.9522C25.8401 38.2185 27.6333 39.25 30 39.25C32.3667 39.25 34.1599 38.2185 35.481 36.9522C36.4254 36.047 37.1177 35.0305 37.5826 34.2138C38.0719 33.3543 38.25 32.3304 38.25 31.237V31C38.25 30.5858 38.5858 30.25 39 30.25H39.5C41.0188 30.25 42.25 29.0188 42.25 27.5C42.25 26.9147 42.068 26.3742 41.7575 25.9291C41.2593 25.2148 40.4339 24.75 39.5 24.75H39C38.5858 24.75 38.25 24.4142 38.25 24V23C38.25 20.6528 36.3472 18.75 34 18.75H20.75ZM26.416 24.376C26.7607 24.6057 26.8538 25.0714 26.6241 25.416C26.0887 26.2191 25.3111 26.5958 24.6064 26.746C23.9146 26.8935 23.2482 26.8351 22.8181 26.7276C22.4163 26.6271 22.172 26.2199 22.2724 25.8181C22.3729 25.4163 22.7801 25.1719 23.1819 25.2724C23.4186 25.3316 23.8521 25.3731 24.2936 25.279C24.7223 25.1876 25.1114 24.9809 25.376 24.584C25.6057 24.2393 26.0714 24.1462 26.416 24.376ZM32.584 24.376C32.9286 24.1462 33.3943 24.2393 33.6241 24.584C33.8887 24.9809 34.2777 25.1876 34.7064 25.279C35.1479 25.3731 35.5815 25.3316 35.8181 25.2724C36.22 25.1719 36.6272 25.4163 36.7276 25.8181C36.8281 26.2199 36.5838 26.6271 36.1819 26.7276C35.7519 26.8351 35.0855 26.8935 34.3936 26.746C33.689 26.5958 32.9114 26.2191 32.376 25.416C32.1462 25.0714 32.2394 24.6057 32.584 24.376ZM29.183 32.6778C28.4756 32.7929 27.8622 33.1985 27.5304 33.5303C27.2375 33.8232 26.7626 33.8232 26.4697 33.5303C26.1768 33.2374 26.1768 32.7626 26.4697 32.4697C26.9712 31.9681 27.8578 31.3737 28.942 31.1972C30.0727 31.0132 31.3575 31.2968 32.5304 32.4697C32.8232 32.7626 32.8232 33.2374 32.5304 33.5303C32.2375 33.8232 31.7626 33.8232 31.4697 33.5303C30.6425 32.7032 29.844 32.5702 29.183 32.6778Z" fill="#13AAE0"/>
</svg>
