<svg width="60" height="60" viewBox="0 0 60 60" fill="none" xmlns="http://www.w3.org/2000/svg">
<path fill-rule="evenodd" clip-rule="evenodd" d="M26.3292 8.66451C26.5144 8.29403 26.9649 8.14386 27.3354 8.3291C29.0505 9.18663 29.9222 10.4977 30.3461 11.9797C30.6811 13.151 30.7383 14.4412 30.748 15.6761C31.0476 15.6256 31.3425 15.5443 31.6275 15.4326C37.137 13.2735 41.716 14.403 44.8993 17.2759C48.0422 20.1123 49.75 24.5771 49.75 28.9998C49.75 33.2703 47.8759 37.8956 45.373 41.6548C42.8837 45.3937 39.6552 48.4493 36.792 49.4222C35.5852 49.8323 34.3309 49.6309 33.2994 49.4246L32.9908 49.3628C31.0165 48.968 28.9835 48.968 27.0092 49.3628L26.7006 49.4246C25.6564 49.6334 24.469 49.8154 23.2794 49.5786C19.5379 48.834 16.2825 45.7601 13.9863 41.9322C11.6788 38.0855 10.25 33.3355 10.25 28.9998C10.25 24.5745 11.9865 20.1115 15.1415 17.2769C18.336 14.4067 22.9147 13.2728 28.3755 15.4303C28.6579 15.5419 28.9503 15.6232 29.2475 15.6742C29.237 14.4718 29.1827 13.3669 28.9039 12.3922C28.5778 11.2521 27.9495 10.3132 26.6646 9.67074C26.2941 9.4855 26.1439 9.03499 26.3292 8.66451ZM43.8944 18.3895C41.1592 15.921 37.1888 14.8643 32.1749 16.8292C31.4774 17.1025 30.7381 17.2389 29.9996 17.2385C29.2611 17.2381 28.5217 17.1009 27.8243 16.8253C22.866 14.8664 18.8947 15.9213 16.144 18.3927C13.3539 20.8995 11.75 24.9308 11.75 28.9998C11.75 33.0353 13.0896 37.5213 15.2726 41.1606C17.4671 44.8189 20.4246 47.481 23.5722 48.1075C24.4493 48.2821 25.3843 48.1581 26.4065 47.9537L26.7151 47.892C28.8835 47.4583 31.1165 47.4583 33.2849 47.892L33.5936 47.9537C34.6284 48.1607 35.5211 48.2698 36.3094 48.0019C38.7087 47.1867 41.7047 44.4579 44.1245 40.8235C46.5306 37.2096 48.25 32.8728 48.25 28.9998C48.25 24.9261 46.6701 20.8944 43.8944 18.3895Z" fill="#13AAE0"/>
</svg>
