<svg width="60" height="60" viewBox="0 0 60 60" fill="none" xmlns="http://www.w3.org/2000/svg">
<path fill-rule="evenodd" clip-rule="evenodd" d="M30 7.75C17.7117 7.75 7.75 17.7117 7.75 30C7.75 42.2883 17.7117 52.25 30 52.25C42.2883 52.25 52.25 42.2883 52.25 30C52.25 17.7117 42.2883 7.75 30 7.75ZM6.25 30C6.25 16.8832 16.8832 6.25 30 6.25C43.1168 6.25 53.75 16.8832 53.75 30C53.75 43.1168 43.1168 53.75 30 53.75C16.8832 53.75 6.25 43.1168 6.25 30ZM25 15.75C24.3096 15.75 23.75 16.3096 23.75 17C23.75 17.6904 24.3096 18.25 25 18.25C25.6904 18.25 26.25 17.6904 26.25 17C26.25 16.3096 25.6904 15.75 25 15.75ZM22.25 17C22.25 15.4812 23.4812 14.25 25 14.25C26.5188 14.25 27.75 15.4812 27.75 17C27.75 18.5188 26.5188 19.75 25 19.75C23.4812 19.75 22.25 18.5188 22.25 17ZM36.5 15.75C34.9812 15.75 33.75 16.9812 33.75 18.5C33.75 20.0188 34.9812 21.25 36.5 21.25C38.0188 21.25 39.25 20.0188 39.25 18.5C39.25 16.9812 38.0188 15.75 36.5 15.75ZM32.25 18.5C32.25 16.1528 34.1528 14.25 36.5 14.25C38.8472 14.25 40.75 16.1528 40.75 18.5C40.75 20.8472 38.8472 22.75 36.5 22.75C34.1528 22.75 32.25 20.8472 32.25 18.5ZM15.5 20.75C13.9812 20.75 12.75 21.9812 12.75 23.5C12.75 25.0188 13.9812 26.25 15.5 26.25C17.0188 26.25 18.25 25.0188 18.25 23.5C18.25 21.9812 17.0188 20.75 15.5 20.75ZM11.25 23.5C11.25 21.1528 13.1528 19.25 15.5 19.25C17.8472 19.25 19.75 21.1528 19.75 23.5C19.75 25.8472 17.8472 27.75 15.5 27.75C13.1528 27.75 11.25 25.8472 11.25 23.5ZM46 21.75C45.3096 21.75 44.75 22.3096 44.75 23C44.75 23.6904 45.3096 24.25 46 24.25C46.6904 24.25 47.25 23.6904 47.25 23C47.25 22.3096 46.6904 21.75 46 21.75ZM43.25 23C43.25 21.4812 44.4812 20.25 46 20.25C47.5188 20.25 48.75 21.4812 48.75 23C48.75 24.5188 47.5188 25.75 46 25.75C44.4812 25.75 43.25 24.5188 43.25 23ZM30 26.75C27.1005 26.75 24.75 29.1005 24.75 32C24.75 34.8995 27.1005 37.25 30 37.25C32.8995 37.25 35.25 34.8995 35.25 32C35.25 29.1005 32.8995 26.75 30 26.75ZM23.25 32C23.25 28.2721 26.2721 25.25 30 25.25C33.7279 25.25 36.75 28.2721 36.75 32C36.75 35.7279 33.7279 38.75 30 38.75C26.2721 38.75 23.25 35.7279 23.25 32ZM43.5 30.75C41.9812 30.75 40.75 31.9812 40.75 33.5C40.75 35.0188 41.9812 36.25 43.5 36.25C45.0188 36.25 46.25 35.0188 46.25 33.5C46.25 31.9812 45.0188 30.75 43.5 30.75ZM39.25 33.5C39.25 31.1528 41.1528 29.25 43.5 29.25C45.8472 29.25 47.75 31.1528 47.75 33.5C47.75 35.8472 45.8472 37.75 43.5 37.75C41.1528 37.75 39.25 35.8472 39.25 33.5ZM17 34.75C16.3096 34.75 15.75 35.3096 15.75 36C15.75 36.6904 16.3096 37.25 17 37.25C17.6904 37.25 18.25 36.6904 18.25 36C18.25 35.3096 17.6904 34.75 17 34.75ZM14.25 36C14.25 34.4812 15.4812 33.25 17 33.25C18.5188 33.25 19.75 34.4812 19.75 36C19.75 37.5188 18.5188 38.75 17 38.75C15.4812 38.75 14.25 37.5188 14.25 36ZM23.5 40.75C21.9812 40.75 20.75 41.9812 20.75 43.5C20.75 45.0188 21.9812 46.25 23.5 46.25C25.0188 46.25 26.25 45.0188 26.25 43.5C26.25 41.9812 25.0188 40.75 23.5 40.75ZM19.25 43.5C19.25 41.1528 21.1528 39.25 23.5 39.25C25.8472 39.25 27.75 41.1528 27.75 43.5C27.75 45.8472 25.8472 47.75 23.5 47.75C21.1528 47.75 19.25 45.8472 19.25 43.5ZM37 40.75C36.3096 40.75 35.75 41.3096 35.75 42C35.75 42.6904 36.3096 43.25 37 43.25C37.6904 43.25 38.25 42.6904 38.25 42C38.25 41.3096 37.6904 40.75 37 40.75ZM34.25 42C34.25 40.4812 35.4812 39.25 37 39.25C38.5188 39.25 39.75 40.4812 39.75 42C39.75 43.5188 38.5188 44.75 37 44.75C35.4812 44.75 34.25 43.5188 34.25 42Z" fill="#13AAE0"/>
</svg>
